<mxfile host="app.diagrams.net" modified="2022-12-22T01:20:40.937Z" agent="5.0 (Macintosh; Intel Mac OS X 10_15_7) AppleWebKit/537.36 (KHTML, like Gecko) Chrome/108.0.0.0 Safari/537.36 Edg/108.0.1462.54" etag="c8q2o-hPJiVfjXFrWKRK" version="20.7.4" type="github">
  <diagram id="qYZI8PlVdvv2B1iaHEZJ" name="第 1 页">
    <mxGraphModel dx="1733" dy="1684" grid="1" gridSize="10" guides="1" tooltips="1" connect="1" arrows="1" fold="1" page="1" pageScale="1" pageWidth="827" pageHeight="1169" math="0" shadow="0">
      <root>
        <mxCell id="0" />
        <mxCell id="1" parent="0" />
        <mxCell id="vDr_8u_lpNSzeCsb1r4c-22" style="edgeStyle=orthogonalEdgeStyle;rounded=0;orthogonalLoop=1;jettySize=auto;html=1;entryX=0.5;entryY=0;entryDx=0;entryDy=0;" parent="1" source="vDr_8u_lpNSzeCsb1r4c-1" target="vDr_8u_lpNSzeCsb1r4c-21" edge="1">
          <mxGeometry relative="1" as="geometry" />
        </mxCell>
        <mxCell id="vDr_8u_lpNSzeCsb1r4c-1" value="打开客户端" style="rounded=1;whiteSpace=wrap;html=1;" parent="1" vertex="1">
          <mxGeometry x="260" y="-70" width="120" height="60" as="geometry" />
        </mxCell>
        <mxCell id="vDr_8u_lpNSzeCsb1r4c-6" style="edgeStyle=orthogonalEdgeStyle;rounded=0;orthogonalLoop=1;jettySize=auto;html=1;" parent="1" source="vDr_8u_lpNSzeCsb1r4c-3" target="vDr_8u_lpNSzeCsb1r4c-5" edge="1">
          <mxGeometry relative="1" as="geometry" />
        </mxCell>
        <mxCell id="vDr_8u_lpNSzeCsb1r4c-12" style="edgeStyle=orthogonalEdgeStyle;rounded=0;orthogonalLoop=1;jettySize=auto;html=1;entryX=0.5;entryY=0;entryDx=0;entryDy=0;" parent="1" source="vDr_8u_lpNSzeCsb1r4c-3" target="vDr_8u_lpNSzeCsb1r4c-10" edge="1">
          <mxGeometry relative="1" as="geometry" />
        </mxCell>
        <mxCell id="vDr_8u_lpNSzeCsb1r4c-3" value="初始化epoll" style="rounded=0;whiteSpace=wrap;html=1;" parent="1" vertex="1">
          <mxGeometry x="260" y="130" width="120" height="60" as="geometry" />
        </mxCell>
        <mxCell id="vDr_8u_lpNSzeCsb1r4c-13" style="edgeStyle=orthogonalEdgeStyle;rounded=0;orthogonalLoop=1;jettySize=auto;html=1;entryX=0.5;entryY=0;entryDx=0;entryDy=0;" parent="1" source="vDr_8u_lpNSzeCsb1r4c-5" target="vDr_8u_lpNSzeCsb1r4c-14" edge="1">
          <mxGeometry relative="1" as="geometry">
            <mxPoint x="140" y="350" as="targetPoint" />
          </mxGeometry>
        </mxCell>
        <mxCell id="vDr_8u_lpNSzeCsb1r4c-5" value="子进程" style="rounded=0;whiteSpace=wrap;html=1;" parent="1" vertex="1">
          <mxGeometry x="80" y="240" width="120" height="60" as="geometry" />
        </mxCell>
        <mxCell id="vDr_8u_lpNSzeCsb1r4c-31" style="edgeStyle=orthogonalEdgeStyle;rounded=0;orthogonalLoop=1;jettySize=auto;html=1;entryX=0.5;entryY=0;entryDx=0;entryDy=0;" parent="1" source="vDr_8u_lpNSzeCsb1r4c-10" target="vDr_8u_lpNSzeCsb1r4c-30" edge="1">
          <mxGeometry relative="1" as="geometry" />
        </mxCell>
        <mxCell id="vDr_8u_lpNSzeCsb1r4c-10" value="父进程" style="rounded=0;whiteSpace=wrap;html=1;" parent="1" vertex="1">
          <mxGeometry x="260" y="240" width="120" height="60" as="geometry" />
        </mxCell>
        <mxCell id="vDr_8u_lpNSzeCsb1r4c-17" style="edgeStyle=orthogonalEdgeStyle;rounded=0;orthogonalLoop=1;jettySize=auto;html=1;" parent="1" source="vDr_8u_lpNSzeCsb1r4c-14" edge="1">
          <mxGeometry relative="1" as="geometry">
            <mxPoint x="140" y="460" as="targetPoint" />
          </mxGeometry>
        </mxCell>
        <mxCell id="vDr_8u_lpNSzeCsb1r4c-14" value="获取用户输入" style="shape=parallelogram;perimeter=parallelogramPerimeter;whiteSpace=wrap;html=1;fixedSize=1;" parent="1" vertex="1">
          <mxGeometry x="80" y="350" width="120" height="60" as="geometry" />
        </mxCell>
        <mxCell id="vDr_8u_lpNSzeCsb1r4c-19" value="是" style="edgeStyle=orthogonalEdgeStyle;rounded=0;orthogonalLoop=1;jettySize=auto;html=1;" parent="1" source="vDr_8u_lpNSzeCsb1r4c-18" edge="1">
          <mxGeometry relative="1" as="geometry">
            <mxPoint x="140" y="590" as="targetPoint" />
          </mxGeometry>
        </mxCell>
        <mxCell id="fYqanhrIaypPJcbi1gdj-2" style="edgeStyle=orthogonalEdgeStyle;rounded=0;orthogonalLoop=1;jettySize=auto;html=1;" edge="1" parent="1" source="vDr_8u_lpNSzeCsb1r4c-18">
          <mxGeometry relative="1" as="geometry">
            <mxPoint x="140" y="320" as="targetPoint" />
            <Array as="points">
              <mxPoint y="500" />
              <mxPoint y="320" />
            </Array>
          </mxGeometry>
        </mxCell>
        <mxCell id="fYqanhrIaypPJcbi1gdj-3" value="否" style="edgeLabel;html=1;align=center;verticalAlign=middle;resizable=0;points=[];" vertex="1" connectable="0" parent="fYqanhrIaypPJcbi1gdj-2">
          <mxGeometry x="-0.839" y="-3" relative="1" as="geometry">
            <mxPoint as="offset" />
          </mxGeometry>
        </mxCell>
        <mxCell id="vDr_8u_lpNSzeCsb1r4c-18" value="是否为退出指令" style="rhombus;whiteSpace=wrap;html=1;" parent="1" vertex="1">
          <mxGeometry x="65" y="460" width="150" height="80" as="geometry" />
        </mxCell>
        <mxCell id="vDr_8u_lpNSzeCsb1r4c-20" value="退出" style="rounded=1;whiteSpace=wrap;html=1;" parent="1" vertex="1">
          <mxGeometry x="80" y="590" width="120" height="60" as="geometry" />
        </mxCell>
        <mxCell id="vDr_8u_lpNSzeCsb1r4c-23" style="edgeStyle=orthogonalEdgeStyle;rounded=0;orthogonalLoop=1;jettySize=auto;html=1;entryX=0.5;entryY=0;entryDx=0;entryDy=0;" parent="1" source="vDr_8u_lpNSzeCsb1r4c-21" target="vDr_8u_lpNSzeCsb1r4c-3" edge="1">
          <mxGeometry relative="1" as="geometry" />
        </mxCell>
        <mxCell id="vDr_8u_lpNSzeCsb1r4c-21" value="初始化socket并建立连接" style="rounded=0;whiteSpace=wrap;html=1;" parent="1" vertex="1">
          <mxGeometry x="260" y="30" width="120" height="60" as="geometry" />
        </mxCell>
        <mxCell id="vDr_8u_lpNSzeCsb1r4c-25" value="" style="shape=link;html=1;rounded=0;entryX=0;entryY=0.5;entryDx=0;entryDy=0;exitX=1;exitY=0.5;exitDx=0;exitDy=0;" parent="1" source="vDr_8u_lpNSzeCsb1r4c-14" target="vDr_8u_lpNSzeCsb1r4c-10" edge="1">
          <mxGeometry width="100" relative="1" as="geometry">
            <mxPoint x="190" y="390" as="sourcePoint" />
            <mxPoint x="290" y="390" as="targetPoint" />
          </mxGeometry>
        </mxCell>
        <mxCell id="vDr_8u_lpNSzeCsb1r4c-26" value="通过管道进行数据运输" style="edgeLabel;html=1;align=center;verticalAlign=middle;resizable=0;points=[];" parent="vDr_8u_lpNSzeCsb1r4c-25" vertex="1" connectable="0">
          <mxGeometry x="0.0276" relative="1" as="geometry">
            <mxPoint as="offset" />
          </mxGeometry>
        </mxCell>
        <mxCell id="vDr_8u_lpNSzeCsb1r4c-32" style="edgeStyle=orthogonalEdgeStyle;rounded=0;orthogonalLoop=1;jettySize=auto;html=1;entryX=0.5;entryY=0;entryDx=0;entryDy=0;" parent="1" source="vDr_8u_lpNSzeCsb1r4c-30" target="vDr_8u_lpNSzeCsb1r4c-34" edge="1">
          <mxGeometry relative="1" as="geometry">
            <mxPoint x="320" y="470" as="targetPoint" />
            <Array as="points" />
          </mxGeometry>
        </mxCell>
        <mxCell id="vDr_8u_lpNSzeCsb1r4c-33" value="否" style="edgeLabel;html=1;align=center;verticalAlign=middle;resizable=0;points=[];" parent="vDr_8u_lpNSzeCsb1r4c-32" vertex="1" connectable="0">
          <mxGeometry x="-0.14" y="-3" relative="1" as="geometry">
            <mxPoint as="offset" />
          </mxGeometry>
        </mxCell>
        <mxCell id="vDr_8u_lpNSzeCsb1r4c-43" style="edgeStyle=orthogonalEdgeStyle;rounded=0;orthogonalLoop=1;jettySize=auto;html=1;entryX=1;entryY=0.5;entryDx=0;entryDy=0;" parent="1" source="vDr_8u_lpNSzeCsb1r4c-30" target="vDr_8u_lpNSzeCsb1r4c-20" edge="1">
          <mxGeometry relative="1" as="geometry" />
        </mxCell>
        <mxCell id="vDr_8u_lpNSzeCsb1r4c-44" value="是" style="edgeLabel;html=1;align=center;verticalAlign=middle;resizable=0;points=[];" parent="vDr_8u_lpNSzeCsb1r4c-43" vertex="1" connectable="0">
          <mxGeometry x="-0.4596" y="4" relative="1" as="geometry">
            <mxPoint as="offset" />
          </mxGeometry>
        </mxCell>
        <mxCell id="vDr_8u_lpNSzeCsb1r4c-30" value="epoll_wait是否为空" style="rhombus;whiteSpace=wrap;html=1;" parent="1" vertex="1">
          <mxGeometry x="245" y="340" width="150" height="80" as="geometry" />
        </mxCell>
        <mxCell id="vDr_8u_lpNSzeCsb1r4c-36" style="edgeStyle=orthogonalEdgeStyle;rounded=0;orthogonalLoop=1;jettySize=auto;html=1;entryX=0.5;entryY=0;entryDx=0;entryDy=0;" parent="1" source="vDr_8u_lpNSzeCsb1r4c-34" target="vDr_8u_lpNSzeCsb1r4c-35" edge="1">
          <mxGeometry relative="1" as="geometry" />
        </mxCell>
        <mxCell id="vDr_8u_lpNSzeCsb1r4c-37" value="是" style="edgeLabel;html=1;align=center;verticalAlign=middle;resizable=0;points=[];" parent="vDr_8u_lpNSzeCsb1r4c-36" vertex="1" connectable="0">
          <mxGeometry x="-0.2444" y="2" relative="1" as="geometry">
            <mxPoint as="offset" />
          </mxGeometry>
        </mxCell>
        <mxCell id="vDr_8u_lpNSzeCsb1r4c-38" value="否" style="edgeStyle=orthogonalEdgeStyle;rounded=0;orthogonalLoop=1;jettySize=auto;html=1;" parent="1" source="vDr_8u_lpNSzeCsb1r4c-34" edge="1">
          <mxGeometry relative="1" as="geometry">
            <mxPoint x="460" y="500" as="targetPoint" />
          </mxGeometry>
        </mxCell>
        <mxCell id="vDr_8u_lpNSzeCsb1r4c-34" value="是否为socket事件" style="rhombus;whiteSpace=wrap;html=1;" parent="1" vertex="1">
          <mxGeometry x="245" y="460" width="150" height="80" as="geometry" />
        </mxCell>
        <mxCell id="vDr_8u_lpNSzeCsb1r4c-42" style="edgeStyle=orthogonalEdgeStyle;rounded=0;orthogonalLoop=1;jettySize=auto;html=1;" parent="1" source="vDr_8u_lpNSzeCsb1r4c-35" edge="1">
          <mxGeometry relative="1" as="geometry">
            <mxPoint x="620" y="320" as="targetPoint" />
          </mxGeometry>
        </mxCell>
        <mxCell id="vDr_8u_lpNSzeCsb1r4c-35" value="接受socket传输消息并回显" style="rounded=0;whiteSpace=wrap;html=1;" parent="1" vertex="1">
          <mxGeometry x="260" y="585" width="120" height="60" as="geometry" />
        </mxCell>
        <mxCell id="vDr_8u_lpNSzeCsb1r4c-40" style="edgeStyle=orthogonalEdgeStyle;rounded=0;orthogonalLoop=1;jettySize=auto;html=1;" parent="1" source="vDr_8u_lpNSzeCsb1r4c-39" edge="1">
          <mxGeometry relative="1" as="geometry">
            <mxPoint x="320" y="320" as="targetPoint" />
            <Array as="points">
              <mxPoint x="620" y="500" />
              <mxPoint x="620" y="320" />
            </Array>
          </mxGeometry>
        </mxCell>
        <mxCell id="vDr_8u_lpNSzeCsb1r4c-39" value="向server发送从子进程获取的消息" style="rounded=0;whiteSpace=wrap;html=1;" parent="1" vertex="1">
          <mxGeometry x="460" y="470" width="120" height="60" as="geometry" />
        </mxCell>
      </root>
    </mxGraphModel>
  </diagram>
</mxfile>
